# xmcd
#
# Track frame offsets: 
#        150
#        58429
#        66821
#        111703
#        158366
#        195391
#
# Disc length: 2848 seconds
#
# Revision: 2
# Processed by: cddbd v1.5.2PL0 Copyright (c) Steve Scherf et al.
# Submitted via: ExactAudioCopy v1.0b6
#
DISCID=520b1e06
DTITLE=3 Chairs - 3 Chairs [CD 2)
DYEAR=2004
DGENRE=House
TTITLE0=Instant Insanity
TTITLE1=Patterns Indangerous
TTITLE2=Richy On Seven
TTITLE3=Next Message
TTITLE4=Muffled Memories
TTITLE5=Good Kiss
EXTD=
EXTT0=
EXTT1=
EXTT2=
EXTT3=
EXTT4=
EXTT5=
PLAYORDER=
